<svg xmlns="http://www.w3.org/2000/svg" xmlns:xlink="http://www.w3.org/1999/xlink" width="500" zoomAndPan="magnify" viewBox="0 0 375 374.999991" height="500" preserveAspectRatio="xMidYMid meet" version="1.0"><defs><clipPath id="id1"><path d="M 82.332031 82.332031 L 174 82.332031 L 174 233 L 82.332031 233 Z M 82.332031 82.332031 " clip-rule="nonzero"/></clipPath><clipPath id="id2"><path d="M 177 254 L 198 254 L 198 292.332031 L 177 292.332031 Z M 177 254 " clip-rule="nonzero"/></clipPath><clipPath id="id3"><path d="M 131 82.332031 L 244 82.332031 L 244 98 L 131 98 Z M 131 82.332031 " clip-rule="nonzero"/></clipPath><clipPath id="id4"><path d="M 251 149 L 292.332031 149 L 292.332031 188 L 251 188 Z M 251 149 " clip-rule="nonzero"/></clipPath><clipPath id="id5"><path d="M 191 104 L 292.332031 104 L 292.332031 143 L 191 143 Z M 191 104 " clip-rule="nonzero"/></clipPath><clipPath id="id6"><path d="M 218 194 L 292.332031 194 L 292.332031 233 L 218 233 Z M 218 194 " clip-rule="nonzero"/></clipPath><clipPath id="id7"><path d="M 251 82.332031 L 292.332031 82.332031 L 292.332031 98 L 251 98 Z M 251 82.332031 " clip-rule="nonzero"/></clipPath></defs><path fill="#025172" d="M 265.125 0 L 0 0 L 0 375 L 375 375 L 375 0 L 265.125 0 " fill-opacity="1" fill-rule="nonzero"/><path fill="#fef9f2" d="M 249 36.75 L 36.75 36.75 L 36.75 338.25 L 338.25 338.25 L 338.25 36.75 L 249 36.75 M 336 123.75 L 336 336 L 39 336 L 39 39 L 336 39 L 336 123.75 M 249 17.25 L 17.25 17.25 L 17.25 357.75 L 357.75 357.75 L 357.75 17.25 L 249 17.25 M 349.5 123 L 349.5 349.5 L 25.5 349.5 L 25.5 25.5 L 349.5 25.5 L 349.5 123 " fill-opacity="1" fill-rule="nonzero"/><g clip-path="url(#id1)"><path fill="#fef9f2" d="M 131.082031 209.832031 L 123.582031 209.832031 C 121.511719 209.832031 119.832031 208.152344 119.832031 206.082031 C 119.832031 204.011719 121.511719 202.332031 123.582031 202.332031 L 131.082031 202.332031 C 133.152344 202.332031 134.832031 204.011719 134.832031 206.082031 C 134.832031 208.152344 133.152344 209.832031 131.082031 209.832031 Z M 116.082031 191.082031 L 108.582031 191.082031 C 106.511719 191.082031 104.832031 189.402344 104.832031 187.332031 C 104.832031 185.261719 106.511719 183.582031 108.582031 183.582031 L 116.082031 183.582031 C 118.152344 183.582031 119.832031 185.261719 119.832031 187.332031 C 119.832031 189.402344 118.152344 191.082031 116.082031 191.082031 Z M 149.832031 202.332031 L 160.878906 202.332031 L 164.628906 191.082031 L 134.832031 191.082031 C 132.761719 191.082031 131.082031 189.402344 131.082031 187.332031 C 131.082031 185.261719 132.761719 183.582031 134.832031 183.582031 L 167.128906 183.582031 L 173.378906 164.832031 L 161.253906 164.832031 C 140.480469 164.832031 123.582031 147.933594 123.582031 127.164062 L 123.582031 82.332031 L 82.332031 82.332031 L 82.332031 232.332031 L 159.765625 232.332031 C 155.902344 227.320312 154.746094 220.738281 156.785156 214.609375 L 158.378906 209.832031 L 149.832031 209.832031 C 147.761719 209.832031 146.082031 208.152344 146.082031 206.082031 C 146.082031 204.011719 147.761719 202.332031 149.832031 202.332031 " fill-opacity="1" fill-rule="nonzero"/></g><path fill="#fef9f2" d="M 161.253906 157.332031 L 177.746094 157.332031 C 180.296875 154.980469 183.6875 153.582031 187.332031 153.582031 C 191.015625 153.582031 194.433594 155.003906 196.992188 157.402344 C 207.429688 157.9375 217.160156 162.347656 224.460938 169.882812 C 229.273438 174.847656 232.691406 180.835938 234.523438 187.332031 L 243.582031 187.332031 L 243.582031 149.832031 L 141.378906 149.832031 C 146.691406 154.496094 153.644531 157.332031 161.253906 157.332031 " fill-opacity="1" fill-rule="nonzero"/><g clip-path="url(#id2)"><path fill="#fef9f2" d="M 195.132812 254.832031 L 179.53125 254.832031 L 177.316406 281.445312 C 177.078125 284.28125 178.007812 286.992188 179.933594 289.085938 C 181.863281 291.179688 184.488281 292.332031 187.332031 292.332031 C 190.175781 292.332031 192.804688 291.179688 194.730469 289.085938 C 196.65625 286.992188 197.585938 284.28125 197.351562 281.445312 L 195.132812 254.832031 " fill-opacity="1" fill-rule="nonzero"/></g><g clip-path="url(#id3)"><path fill="#fef9f2" d="M 243.582031 82.332031 L 131.082031 82.332031 L 131.082031 97.332031 L 243.582031 97.332031 L 243.582031 82.332031 " fill-opacity="1" fill-rule="nonzero"/></g><path fill="#fef9f2" d="M 183.582031 142.332031 L 183.582031 104.832031 L 131.082031 104.832031 L 131.082031 127.164062 C 131.082031 132.691406 132.585938 137.871094 135.191406 142.332031 L 183.582031 142.332031 " fill-opacity="1" fill-rule="nonzero"/><path fill="#fef9f2" d="M 187.332031 239.832031 L 183.582031 239.832031 L 183.582031 247.332031 L 191.082031 247.332031 L 191.082031 239.832031 L 187.332031 239.832031 " fill-opacity="1" fill-rule="nonzero"/><g clip-path="url(#id4)"><path fill="#fef9f2" d="M 251.082031 187.332031 L 292.332031 187.332031 L 292.332031 149.832031 L 251.082031 149.832031 L 251.082031 187.332031 " fill-opacity="1" fill-rule="nonzero"/></g><g clip-path="url(#id5)"><path fill="#fef9f2" d="M 191.082031 104.832031 L 191.082031 142.332031 L 292.332031 142.332031 L 292.332031 104.832031 L 191.082031 104.832031 " fill-opacity="1" fill-rule="nonzero"/></g><g clip-path="url(#id6)"><path fill="#fef9f2" d="M 236.082031 198.582031 C 236.082031 212.519531 229.136719 224.863281 218.519531 232.332031 L 292.332031 232.332031 L 292.332031 194.832031 L 235.910156 194.832031 C 236.019531 196.074219 236.082031 197.324219 236.082031 198.582031 " fill-opacity="1" fill-rule="nonzero"/></g><path fill="#fef9f2" d="M 193.644531 165.632812 C 192.738281 162.910156 190.203125 161.082031 187.332031 161.082031 C 184.464844 161.082031 181.925781 162.910156 181.019531 165.632812 L 163.902344 216.984375 C 162.496094 221.199219 163.578125 225.773438 166.71875 228.914062 C 168.921875 231.117188 171.851562 232.332031 174.96875 232.332031 L 194.832031 232.332031 C 198.816406 232.332031 202.640625 231.632812 206.191406 230.359375 C 206.816406 229.941406 207.402344 229.457031 207.945312 228.914062 C 211.089844 225.773438 212.167969 221.199219 210.761719 216.980469 L 193.644531 165.632812 " fill-opacity="1" fill-rule="nonzero"/><g clip-path="url(#id7)"><path fill="#fef9f2" d="M 251.082031 82.332031 L 251.082031 97.332031 L 292.332031 97.332031 L 292.332031 82.332031 L 251.082031 82.332031 " fill-opacity="1" fill-rule="nonzero"/></g><path fill="#fef9f2" d="M 218.800781 222.316406 C 224.84375 216.214844 228.582031 207.828125 228.582031 198.582031 C 228.582031 189.769531 225.207031 181.429688 219.074219 175.097656 C 214.261719 170.132812 208.160156 166.832031 201.507812 165.5 L 217.878906 214.609375 C 218.722656 217.148438 219.015625 219.765625 218.800781 222.316406 " fill-opacity="1" fill-rule="nonzero"/></svg>