<svg xmlns="http://www.w3.org/2000/svg" xmlns:xlink="http://www.w3.org/1999/xlink" width="500" zoomAndPan="magnify" viewBox="0 0 375 374.999991" height="500" preserveAspectRatio="xMidYMid meet" version="1.0"><defs><clipPath id="id1"><path d="M 91.195312 123 L 283.945312 123 L 283.945312 252.753906 L 91.195312 252.753906 Z M 91.195312 123 " clip-rule="nonzero"/></clipPath></defs><path fill="#025172" d="M 265.125 0 L 0 0 L 0 375 L 375 375 L 375 0 L 265.125 0 " fill-opacity="1" fill-rule="nonzero"/><path fill="#fef9f2" d="M 249 36.75 L 36.75 36.75 L 36.75 338.25 L 338.25 338.25 L 338.25 36.75 L 249 36.75 M 336 123.75 L 336 336 L 39 336 L 39 39 L 336 39 L 336 123.75 M 249 17.25 L 17.25 17.25 L 17.25 357.75 L 357.75 357.75 L 357.75 17.25 L 249 17.25 M 349.5 123 L 349.5 349.5 L 25.5 349.5 L 25.5 25.5 L 349.5 25.5 L 349.5 123 " fill-opacity="1" fill-rule="nonzero"/><g clip-path="url(#id1)"><path fill="#fef9f2" d="M 277.519531 174.921875 C 281.066406 174.921875 283.945312 172.046875 283.945312 168.503906 L 283.945312 129.804688 C 283.945312 126.257812 281.066406 123.382812 277.519531 123.382812 L 97.617188 123.382812 C 94.070312 123.382812 91.195312 126.257812 91.195312 129.804688 L 91.195312 168.503906 C 91.195312 172.046875 94.070312 174.921875 97.617188 174.921875 L 121.175781 174.921875 L 121.175781 200.769531 L 97.617188 200.769531 C 94.070312 200.769531 91.195312 203.644531 91.195312 207.191406 L 91.195312 245.886719 C 91.195312 249.433594 94.070312 252.308594 97.617188 252.308594 L 277.519531 252.308594 C 281.066406 252.308594 283.945312 249.433594 283.945312 245.886719 L 283.945312 207.191406 C 283.945312 203.644531 281.066406 200.769531 277.519531 200.769531 L 253.960938 200.769531 L 253.960938 174.921875 Z M 271.09375 162.082031 L 223.976562 162.082031 L 223.976562 136.226562 L 271.09375 136.226562 Z M 211.125 162.082031 L 164.011719 162.082031 L 164.011719 136.226562 L 211.125 136.226562 Z M 104.042969 136.226562 L 151.164062 136.226562 L 151.164062 162.082031 L 104.042969 162.082031 Z M 134.027344 174.921875 L 181.144531 174.921875 L 181.144531 200.769531 L 134.027344 200.769531 Z M 104.042969 213.613281 L 127.570312 213.613281 C 127.582031 213.613281 127.589844 213.617188 127.601562 213.617188 L 151.164062 213.617188 L 151.164062 239.46875 L 104.042969 239.46875 Z M 164.011719 213.617188 L 211.125 213.617188 L 211.125 239.46875 L 164.011719 239.46875 Z M 271.09375 239.46875 L 223.976562 239.46875 L 223.976562 213.617188 L 247.535156 213.617188 C 247.546875 213.617188 247.554688 213.613281 247.566406 213.613281 L 271.09375 213.613281 Z M 241.113281 200.769531 L 193.992188 200.769531 L 193.992188 174.921875 L 241.113281 174.921875 Z M 241.113281 200.769531 " fill-opacity="1" fill-rule="nonzero"/></g></svg>