<svg xmlns="http://www.w3.org/2000/svg" xmlns:xlink="http://www.w3.org/1999/xlink" width="500" zoomAndPan="magnify" viewBox="0 0 375 374.999991" height="500" preserveAspectRatio="xMidYMid meet" version="1.0"><defs><clipPath id="id1"><path d="M 93 113.511719 L 283 113.511719 L 283 212 L 93 212 Z M 93 113.511719 " clip-rule="nonzero"/></clipPath><clipPath id="id2"><path d="M 91.878906 152 L 207 152 L 207 261 L 91.878906 261 Z M 91.878906 152 " clip-rule="nonzero"/></clipPath><clipPath id="id3"><path d="M 212 178 L 283.128906 178 L 283.128906 261 L 212 261 Z M 212 178 " clip-rule="nonzero"/></clipPath></defs><path fill="#025172" d="M 265.125 0 L 0 0 L 0 375 L 375 375 L 375 0 L 265.125 0 " fill-opacity="1" fill-rule="nonzero"/><path fill="#fef9f2" d="M 249 36.75 L 36.75 36.75 L 36.75 338.25 L 338.25 338.25 L 338.25 36.75 L 249 36.75 M 336 123.75 L 336 336 L 39 336 L 39 39 L 336 39 L 336 123.75 M 249 17.25 L 17.25 17.25 L 17.25 357.75 L 357.75 357.75 L 357.75 17.25 L 249 17.25 M 349.5 123 L 349.5 349.5 L 25.5 349.5 L 25.5 25.5 L 349.5 25.5 L 349.5 123 " fill-opacity="1" fill-rule="nonzero"/><g clip-path="url(#id1)"><path fill="#f4f6fc" d="M 243.28125 173.167969 L 211.457031 190.9375 C 211.1875 191.085938 210.867188 191.085938 210.597656 190.9375 L 134.355469 148.84375 C 133.707031 148.488281 133.757812 147.535156 134.433594 147.242188 L 166.027344 133.585938 C 166.273438 133.484375 166.542969 133.496094 166.777344 133.609375 L 243.246094 171.585938 C 243.882812 171.90625 243.90625 172.8125 243.28125 173.167969 Z M 281.621094 170.652344 L 167.308594 113.875 C 167.066406 113.761719 166.789062 113.753906 166.550781 113.863281 L 93.835938 145.273438 C 93.148438 145.574219 93.101562 146.527344 93.757812 146.886719 L 210.640625 211.425781 C 210.910156 211.574219 211.242188 211.574219 211.511719 211.425781 L 281.664062 172.242188 C 282.296875 171.886719 282.273438 170.976562 281.621094 170.652344 " fill-opacity="1" fill-rule="nonzero"/></g><g clip-path="url(#id2)"><path fill="#fef9f2" d="M 206.609375 215.792969 L 206.609375 260.839844 L 91.878906 195.296875 L 92.121094 152.578125 L 206.609375 215.792969 " fill-opacity="1" fill-rule="nonzero"/></g><g clip-path="url(#id3)"><path fill="#fef9f2" d="M 283.128906 178.046875 L 282.964844 218.589844 L 212.011719 260.992188 L 212.011719 217.765625 L 283.128906 178.046875 " fill-opacity="1" fill-rule="nonzero"/></g></svg>