<svg xmlns="http://www.w3.org/2000/svg" xmlns:xlink="http://www.w3.org/1999/xlink" width="500" zoomAndPan="magnify" viewBox="0 0 375 374.999991" height="500" preserveAspectRatio="xMidYMid meet" version="1.0"><defs><clipPath id="id1"><path d="M 91.210938 101.800781 L 283.960938 101.800781 L 283.960938 273.550781 L 91.210938 273.550781 Z M 91.210938 101.800781 " clip-rule="nonzero"/></clipPath></defs><path fill="#025172" d="M 265.125 0 L 0 0 L 0 375 L 375 375 L 375 0 L 265.125 0 " fill-opacity="1" fill-rule="nonzero"/><path fill="#fef9f2" d="M 249 36.75 L 36.75 36.75 L 36.75 338.25 L 338.25 338.25 L 338.25 36.75 L 249 36.75 M 336 123.75 L 336 336 L 39 336 L 39 39 L 336 39 L 336 123.75 M 249 17.25 L 17.25 17.25 L 17.25 357.75 L 357.75 357.75 L 357.75 17.25 L 249 17.25 M 349.5 123 L 349.5 349.5 L 25.5 349.5 L 25.5 25.5 L 349.5 25.5 L 349.5 123 " fill-opacity="1" fill-rule="nonzero"/><g clip-path="url(#id1)"><path fill="#fef9f2" d="M 280.800781 267.457031 L 249.226562 267.457031 L 249.226562 253.609375 C 255.242188 252.253906 259.753906 246.835938 259.753906 240.363281 C 259.753906 233.890625 250.429688 221.394531 248.625 218.988281 C 247.425781 217.480469 245.019531 217.480469 243.816406 218.988281 C 242.011719 221.394531 232.691406 233.890625 232.691406 240.363281 C 232.691406 246.835938 237.199219 252.253906 243.214844 253.609375 L 243.214844 267.457031 L 222.164062 267.457031 L 222.164062 258.425781 L 237.199219 258.425781 L 237.199219 257.675781 C 234.792969 256.320312 232.539062 254.511719 230.886719 252.40625 L 222.164062 252.40625 L 222.164062 216.277344 L 231.1875 216.277344 C 232.390625 216.277344 233.441406 215.675781 233.890625 214.621094 C 234.34375 213.566406 234.34375 212.363281 233.589844 211.460938 L 225.773438 201.222656 L 270.277344 201.222656 L 270.277344 252.40625 L 261.558594 252.40625 C 259.902344 254.664062 257.648438 256.46875 255.242188 257.675781 L 255.242188 258.425781 L 273.285156 258.425781 C 274.9375 258.425781 276.292969 257.070312 276.292969 255.414062 L 276.292969 201.222656 L 280.800781 201.222656 C 281.855469 201.222656 282.757812 200.621094 283.359375 199.871094 C 283.960938 198.964844 283.960938 197.914062 283.507812 197.007812 L 268.472656 166.902344 C 268.023438 165.847656 266.96875 165.246094 265.765625 165.246094 L 237.953125 165.246094 L 237.953125 144.023438 L 247.574219 144.023438 C 250.882812 144.023438 253.589844 141.3125 253.589844 138 L 253.589844 131.980469 C 253.589844 128.816406 251.03125 126.257812 247.875 125.957031 L 233.589844 103.226562 C 232.992188 102.324219 232.089844 101.871094 231.035156 101.871094 L 144.433594 101.871094 C 143.382812 101.871094 142.480469 102.324219 141.878906 103.226562 L 127.292969 125.957031 C 123.984375 125.957031 121.28125 128.667969 121.28125 131.980469 L 121.28125 138 C 121.28125 141.3125 123.984375 144.023438 127.292969 144.023438 L 134.960938 144.023438 L 134.960938 165.097656 L 109.402344 165.097656 C 108.199219 165.097656 107.148438 165.699219 106.695312 166.753906 L 91.660156 196.859375 C 91.210938 197.761719 91.210938 198.964844 91.8125 199.71875 C 92.414062 200.621094 93.3125 201.222656 94.367188 201.222656 L 98.878906 201.222656 L 98.878906 255.414062 C 98.878906 257.070312 100.230469 258.425781 101.882812 258.425781 L 116.917969 258.425781 L 116.917969 257.675781 C 114.515625 256.320312 112.257812 254.511719 110.605469 252.40625 L 104.890625 252.40625 L 104.890625 201.222656 L 149.394531 201.222656 L 141.578125 211.460938 C 140.824219 212.363281 140.824219 213.566406 141.277344 214.621094 C 141.726562 215.675781 142.78125 216.277344 143.984375 216.277344 L 153.003906 216.277344 L 153.003906 252.40625 L 141.277344 252.40625 C 139.621094 254.664062 137.367188 256.46875 134.960938 257.675781 L 134.960938 258.425781 L 153.003906 258.425781 L 153.003906 267.457031 L 128.949219 267.457031 L 128.949219 253.609375 C 134.960938 252.253906 139.472656 246.835938 139.472656 240.363281 C 139.472656 233.890625 130.148438 221.394531 128.347656 218.988281 C 127.144531 217.480469 124.738281 217.480469 123.535156 218.988281 C 121.730469 221.394531 112.410156 233.890625 112.410156 240.363281 C 112.410156 246.835938 116.917969 252.253906 122.933594 253.609375 L 122.933594 267.457031 L 94.367188 267.457031 C 92.710938 267.457031 91.359375 268.8125 91.359375 270.46875 C 91.359375 272.125 92.710938 273.480469 94.367188 273.480469 L 280.800781 273.480469 C 282.457031 273.480469 283.808594 272.125 283.808594 270.46875 C 283.808594 268.8125 282.457031 267.457031 280.800781 267.457031 Z M 125.941406 238.855469 C 124.285156 238.855469 122.933594 240.210938 122.933594 241.867188 L 122.933594 247.289062 C 120.226562 246.082031 118.421875 243.523438 118.421875 240.363281 C 118.421875 237.652344 122.332031 231.179688 125.941406 225.910156 C 129.550781 231.179688 133.457031 237.652344 133.457031 240.363281 C 133.457031 243.375 131.652344 246.082031 128.949219 247.289062 L 128.949219 241.867188 C 128.949219 240.210938 127.59375 238.855469 125.941406 238.855469 Z M 263.960938 171.117188 L 275.992188 195.203125 L 221.261719 195.203125 L 202.769531 171.117188 Z M 198.257812 165.097656 L 189.988281 154.257812 C 188.789062 152.753906 186.382812 152.753906 185.179688 154.257812 L 176.910156 165.097656 L 140.976562 165.097656 L 140.976562 144.023438 L 231.9375 144.023438 L 231.9375 165.097656 Z M 146.085938 107.894531 L 229.382812 107.894531 L 240.660156 125.957031 L 134.511719 125.957031 Z M 127.292969 138 L 127.292969 131.980469 L 247.574219 131.980469 L 247.574219 138 Z M 99.179688 195.203125 L 111.207031 171.117188 L 172.25 171.117188 L 153.90625 195.203125 Z M 198.109375 267.457031 L 177.058594 267.457031 L 177.058594 241.867188 L 198.109375 241.867188 Z M 216.152344 267.457031 L 204.121094 267.457031 L 204.121094 238.855469 C 204.121094 237.203125 202.769531 235.847656 201.117188 235.847656 L 174.054688 235.847656 C 172.398438 235.847656 171.046875 237.203125 171.046875 238.855469 L 171.046875 267.457031 L 159.019531 267.457031 L 159.019531 216.277344 L 216.152344 216.277344 Z M 149.996094 210.257812 L 187.585938 161.03125 L 225.171875 210.257812 Z M 246.222656 238.855469 C 244.566406 238.855469 243.214844 240.210938 243.214844 241.867188 L 243.214844 247.289062 C 240.507812 246.082031 238.703125 243.523438 238.703125 240.363281 C 238.703125 237.652344 242.613281 231.179688 246.222656 225.910156 C 249.828125 231.179688 253.738281 237.652344 253.738281 240.363281 C 253.738281 243.375 251.933594 246.082031 249.226562 247.289062 L 249.226562 241.867188 C 249.226562 240.210938 247.875 238.855469 246.222656 238.855469 Z M 246.222656 238.855469 " fill-opacity="1" fill-rule="nonzero"/></g></svg>