<svg xmlns="http://www.w3.org/2000/svg" xmlns:xlink="http://www.w3.org/1999/xlink" width="500" zoomAndPan="magnify" viewBox="0 0 375 374.999991" height="500" preserveAspectRatio="xMidYMid meet" version="1.0"><defs><clipPath id="id1"><path d="M 247 173 L 277.03125 173 L 277.03125 188 L 247 188 Z M 247 173 " clip-rule="nonzero"/></clipPath><clipPath id="id2"><path d="M 189 89.007812 L 220 89.007812 L 220 118 L 189 118 Z M 189 89.007812 " clip-rule="nonzero"/></clipPath><clipPath id="id3"><path d="M 153 89.007812 L 184 89.007812 L 184 118 L 153 118 Z M 153 89.007812 " clip-rule="nonzero"/></clipPath><clipPath id="id4"><path d="M 97.78125 146 L 128 146 L 128 166 L 97.78125 166 Z M 97.78125 146 " clip-rule="nonzero"/></clipPath><clipPath id="id5"><path d="M 97.78125 158 L 128 158 L 128 286.257812 L 97.78125 286.257812 Z M 97.78125 158 " clip-rule="nonzero"/></clipPath><clipPath id="id6"><path d="M 134 158 L 148 158 L 148 286.257812 L 134 286.257812 Z M 134 158 " clip-rule="nonzero"/></clipPath><clipPath id="id7"><path d="M 153 106 L 184 106 L 184 286.257812 L 153 286.257812 Z M 153 106 " clip-rule="nonzero"/></clipPath><clipPath id="id8"><path d="M 189 106 L 220 106 L 220 286.257812 L 189 286.257812 Z M 189 106 " clip-rule="nonzero"/></clipPath><clipPath id="id9"><path d="M 247 183 L 277.03125 183 L 277.03125 286.257812 L 247 286.257812 Z M 247 183 " clip-rule="nonzero"/></clipPath><clipPath id="id10"><path d="M 226 183 L 241 183 L 241 286.257812 L 226 286.257812 Z M 226 183 " clip-rule="nonzero"/></clipPath></defs><path fill="#025172" d="M 265.125 0 L 0 0 L 0 375 L 375 375 L 375 0 L 265.125 0 " fill-opacity="1" fill-rule="nonzero"/><path fill="#fef9f2" d="M 249 36.75 L 36.75 36.75 L 36.75 338.25 L 338.25 338.25 L 338.25 36.75 L 249 36.75 M 336 123.75 L 336 336 L 39 336 L 39 39 L 336 39 L 336 123.75 M 249 17.25 L 17.25 17.25 L 17.25 357.75 L 357.75 357.75 L 357.75 17.25 L 249 17.25 M 349.5 123 L 349.5 349.5 L 25.5 349.5 L 25.5 25.5 L 349.5 25.5 L 349.5 123 " fill-opacity="1" fill-rule="nonzero"/><path fill="#fef9f2" d="M 240.808594 173.058594 L 240.808594 176.152344 L 226.152344 181.75 L 226.152344 178.664062 Z M 240.808594 173.058594 " fill-opacity="1" fill-rule="nonzero"/><g clip-path="url(#id1)"><path fill="#fef9f2" d="M 277.050781 184.371094 L 277.050781 187.457031 L 247.449219 176.152344 L 247.449219 173.058594 Z M 277.050781 184.371094 " fill-opacity="1" fill-rule="nonzero"/></g><g clip-path="url(#id2)"><path fill="#fef9f2" d="M 219.515625 108.484375 L 219.515625 117.933594 L 189.914062 98.6875 L 189.914062 89.230469 Z M 219.515625 108.484375 " fill-opacity="1" fill-rule="nonzero"/></g><g clip-path="url(#id3)"><path fill="#fef9f2" d="M 183.273438 89.230469 L 183.273438 98.6875 L 153.671875 117.933594 L 153.671875 108.484375 Z M 183.273438 89.230469 " fill-opacity="1" fill-rule="nonzero"/></g><path fill="#fef9f2" d="M 147.035156 152.371094 L 147.035156 157.527344 L 134.015625 151.441406 L 134.015625 146.28125 Z M 147.035156 152.371094 " fill-opacity="1" fill-rule="nonzero"/><g clip-path="url(#id4)"><path fill="#fef9f2" d="M 127.375 146.28125 L 127.375 151.441406 L 97.78125 165.28125 L 97.78125 160.125 Z M 127.375 146.28125 " fill-opacity="1" fill-rule="nonzero"/></g><g clip-path="url(#id5)"><path fill="#fef9f2" d="M 97.78125 172.625 L 97.78125 286.070312 L 127.375 286.070312 L 127.375 158.800781 Z M 110.660156 218.558594 L 104.023438 218.558594 L 104.023438 211.90625 L 110.660156 211.90625 Z M 123.109375 181.769531 L 116.472656 181.769531 L 116.472656 175.113281 L 123.109375 175.113281 Z M 123.109375 181.769531 " fill-opacity="1" fill-rule="nonzero"/></g><g clip-path="url(#id6)"><path fill="#fef9f2" d="M 147.035156 164.875 L 147.035156 286.070312 L 134.015625 286.070312 L 134.015625 158.785156 Z M 147.035156 164.875 " fill-opacity="1" fill-rule="nonzero"/></g><g clip-path="url(#id7)"><path fill="#fef9f2" d="M 153.671875 125.871094 L 153.671875 286.070312 L 183.257812 286.070312 L 183.257812 106.621094 Z M 165.292969 138.007812 L 158.652344 138.007812 L 158.652344 131.351562 L 165.292969 131.351562 Z M 176.621094 227.011719 L 169.980469 227.011719 L 169.980469 220.355469 L 176.621094 220.355469 Z M 176.621094 186.25 L 169.980469 186.25 L 169.980469 179.597656 L 176.621094 179.597656 Z M 176.621094 186.25 " fill-opacity="1" fill-rule="nonzero"/></g><g clip-path="url(#id8)"><path fill="#fef9f2" d="M 189.898438 106.621094 L 189.898438 286.070312 L 219.5 286.070312 L 219.5 125.871094 Z M 204.003906 207.878906 L 197.367188 207.878906 L 197.367188 201.222656 L 204.003906 201.222656 Z M 204.003906 140.503906 L 197.367188 140.503906 L 197.367188 133.847656 L 204.003906 133.847656 Z M 214.253906 167.417969 L 207.613281 167.417969 L 207.613281 160.765625 L 214.253906 160.765625 Z M 214.253906 167.417969 " fill-opacity="1" fill-rule="nonzero"/></g><g clip-path="url(#id9)"><path fill="#fef9f2" d="M 247.449219 183.273438 L 247.449219 286.070312 L 277.03125 286.070312 L 277.03125 194.570312 Z M 260.867188 207.878906 L 254.226562 207.878906 L 254.226562 201.222656 L 260.867188 201.222656 Z M 271.238281 227.011719 L 264.601562 227.011719 L 264.601562 220.355469 L 271.238281 220.355469 Z M 271.238281 227.011719 " fill-opacity="1" fill-rule="nonzero"/></g><g clip-path="url(#id10)"><path fill="#fef9f2" d="M 240.808594 183.273438 L 240.808594 286.070312 L 226.152344 286.070312 L 226.152344 188.871094 Z M 240.808594 183.273438 " fill-opacity="1" fill-rule="nonzero"/></g></svg>