<svg xmlns="http://www.w3.org/2000/svg" xmlns:xlink="http://www.w3.org/1999/xlink" width="500" zoomAndPan="magnify" viewBox="0 0 375 374.999991" height="500" preserveAspectRatio="xMidYMid meet" version="1.0"><defs><clipPath id="id1"><path d="M 213 150 L 261.46875 150 L 261.46875 262.5 L 213 262.5 Z M 213 150 " clip-rule="nonzero"/></clipPath><clipPath id="id2"><path d="M 213 112.5 L 246 112.5 L 246 130 L 213 130 Z M 213 112.5 " clip-rule="nonzero"/></clipPath><clipPath id="id3"><path d="M 113.71875 150 L 162 150 L 162 262.5 L 113.71875 262.5 Z M 113.71875 150 " clip-rule="nonzero"/></clipPath><clipPath id="id4"><path d="M 129 112.5 L 162 112.5 L 162 130 L 129 130 Z M 129 112.5 " clip-rule="nonzero"/></clipPath><clipPath id="id5"><path d="M 156 150 L 220 150 L 220 262.5 L 156 262.5 Z M 156 150 " clip-rule="nonzero"/></clipPath><clipPath id="id6"><path d="M 171 112.5 L 204 112.5 L 204 130 L 171 130 Z M 171 112.5 " clip-rule="nonzero"/></clipPath></defs><path fill="#025172" d="M 265.125 0 L 0 0 L 0 375 L 375 375 L 375 0 L 265.125 0 " fill-opacity="1" fill-rule="nonzero"/><path fill="#fef9f2" d="M 249 36.75 L 36.75 36.75 L 36.75 338.25 L 338.25 338.25 L 338.25 36.75 L 249 36.75 M 336 123.75 L 336 336 L 39 336 L 39 39 L 336 39 L 336 123.75 M 249 17.25 L 17.25 17.25 L 17.25 357.75 L 357.75 357.75 L 357.75 17.25 L 249 17.25 M 349.5 123 L 349.5 349.5 L 25.5 349.5 L 25.5 25.5 L 349.5 25.5 L 349.5 123 " fill-opacity="1" fill-rule="nonzero"/><path fill="#fef9f2" d="M 212.875 155.898438 C 215.621094 159.542969 217.691406 164.1875 219.125 169.882812 L 219.125 150.328125 L 218.128906 150.328125 C 217.628906 150.328125 217.144531 150.414062 216.6875 150.558594 C 215.8125 150.707031 214.734375 150.988281 213.527344 151.515625 C 212.574219 151.925781 211.5625 152.5 210.539062 153.25 C 211.316406 154.007812 212.105469 154.882812 212.875 155.898438 Z M 212.875 155.898438 " fill-opacity="1" fill-rule="nonzero"/><path fill="#fef9f2" d="M 222.941406 150.328125 L 236.601562 150.328125 L 236.601562 161.425781 L 222.941406 161.425781 Z M 222.941406 150.328125 " fill-opacity="1" fill-rule="nonzero"/><g clip-path="url(#id1)"><path fill="#fef9f2" d="M 246.015625 151.515625 C 244.8125 150.988281 243.738281 150.710938 242.863281 150.558594 C 242.40625 150.414062 241.921875 150.328125 241.417969 150.328125 L 240.421875 150.328125 L 240.421875 193.730469 L 221.527344 193.730469 C 221.515625 196.648438 221.421875 199.691406 221.25 202.800781 C 221.039062 206.628906 217.871094 209.625 214.03125 209.625 C 213.90625 209.625 213.78125 209.625 213.652344 209.617188 C 213.589844 209.613281 213.535156 209.601562 213.472656 209.597656 L 213.472656 255.054688 C 213.472656 259.164062 216.808594 262.496094 220.925781 262.496094 C 225.039062 262.496094 228.375 259.164062 228.375 255.054688 L 228.375 200.800781 L 231.171875 200.800781 L 231.171875 255.054688 C 231.171875 259.164062 234.507812 262.496094 238.621094 262.496094 C 242.738281 262.496094 246.070312 259.164062 246.070312 255.054688 L 246.070312 164.070312 C 246.292969 164.40625 246.519531 164.761719 246.746094 165.160156 C 249.183594 169.476562 251.679688 177.863281 251.667969 193.011719 C 251.667969 195.820312 251.582031 198.855469 251.402344 202.140625 C 251.253906 204.792969 253.292969 207.066406 255.953125 207.214844 C 256.042969 207.21875 256.132812 207.21875 256.21875 207.21875 C 258.761719 207.222656 260.890625 205.234375 261.03125 202.667969 C 261.222656 199.222656 261.308594 196.007812 261.308594 193.011719 C 261.292969 173.972656 257.753906 163.476562 253.136719 157.351562 C 250.839844 154.3125 248.246094 152.484375 246.015625 151.515625 Z M 246.015625 151.515625 " fill-opacity="1" fill-rule="nonzero"/></g><path fill="#fef9f2" d="M 216.210938 132.761719 C 216.210938 140.242188 222.285156 146.308594 229.773438 146.308594 C 237.261719 146.308594 243.332031 140.242188 243.332031 132.761719 C 243.332031 132.105469 243.285156 131.457031 243.191406 130.820312 L 216.351562 130.820312 C 216.261719 131.457031 216.210938 132.105469 216.210938 132.761719 Z M 216.210938 132.761719 " fill-opacity="1" fill-rule="nonzero"/><g clip-path="url(#id2)"><path fill="#fef9f2" d="M 215.589844 125.984375 C 214.585938 125.984375 213.773438 126.800781 213.773438 127.800781 C 213.773438 128.804688 214.585938 129.617188 215.589844 129.617188 L 243.957031 129.617188 C 244.960938 129.617188 245.773438 128.804688 245.773438 127.800781 C 245.773438 126.800781 244.960938 125.984375 243.957031 125.984375 L 243.703125 125.984375 C 243.691406 125.578125 243.667969 125.179688 243.621094 124.78125 C 243.160156 120.65625 240.894531 117.078125 237.628906 114.847656 L 237.628906 115.960938 C 237.628906 116.753906 236.984375 117.398438 236.191406 117.398438 C 235.394531 117.398438 234.75 116.753906 234.75 115.960938 L 234.75 113.34375 C 233.632812 112.917969 232.445312 112.625 231.210938 112.5 L 231.210938 115.960938 C 231.210938 116.753906 230.566406 117.398438 229.773438 117.398438 C 228.976562 117.398438 228.332031 116.753906 228.332031 115.960938 L 228.332031 112.5 C 227.097656 112.628906 225.910156 112.917969 224.792969 113.34375 L 224.792969 115.960938 C 224.792969 116.753906 224.148438 117.398438 223.355469 117.398438 C 222.558594 117.398438 221.914062 116.753906 221.914062 115.960938 L 221.914062 114.847656 C 218.652344 117.078125 216.386719 120.65625 215.921875 124.78125 C 215.878906 125.179688 215.851562 125.578125 215.839844 125.984375 Z M 215.589844 125.984375 " fill-opacity="1" fill-rule="nonzero"/></g><path fill="#fef9f2" d="M 156.042969 161.425781 L 156.042969 169.835938 C 156.785156 166.898438 157.703125 164.234375 158.796875 161.828125 C 160.542969 157.953125 162.628906 155.207031 164.628906 153.253906 C 163.601562 152.507812 162.585938 151.929688 161.640625 151.515625 C 160.433594 150.988281 159.359375 150.710938 158.484375 150.558594 C 158.03125 150.414062 157.542969 150.328125 157.039062 150.328125 L 156.042969 150.328125 Z M 156.042969 161.425781 " fill-opacity="1" fill-rule="nonzero"/><path fill="#fef9f2" d="M 138.566406 150.328125 L 152.226562 150.328125 L 152.226562 161.425781 L 138.566406 161.425781 Z M 138.566406 150.328125 " fill-opacity="1" fill-rule="nonzero"/><g clip-path="url(#id3)"><path fill="#fef9f2" d="M 161.132812 209.625 C 157.300781 209.625 154.132812 206.632812 153.917969 202.804688 C 153.742188 199.683594 153.652344 196.640625 153.636719 193.730469 L 134.75 193.730469 L 134.75 150.328125 L 133.753906 150.328125 C 133.25 150.328125 132.765625 150.414062 132.3125 150.558594 C 131.433594 150.707031 130.359375 150.988281 129.148438 151.515625 C 125.777344 152.960938 121.707031 156.382812 118.804688 162.824219 C 115.867188 169.28125 113.863281 178.710938 113.855469 193.011719 C 113.855469 196.011719 113.941406 199.222656 114.136719 202.671875 C 114.28125 205.234375 116.40625 207.21875 118.945312 207.21875 C 119.035156 207.21875 119.125 207.21875 119.21875 207.210938 C 121.875 207.066406 123.914062 204.792969 123.765625 202.136719 C 123.582031 198.855469 123.496094 195.820312 123.5 193.011719 C 123.480469 176.421875 126.476562 167.996094 129.097656 164.035156 L 129.097656 255.054688 C 129.097656 259.164062 132.433594 262.496094 136.546875 262.496094 C 140.664062 262.496094 144 259.164062 144 255.054688 L 144 200.800781 L 146.792969 200.800781 L 146.792969 255.054688 C 146.792969 259.164062 150.128906 262.496094 154.246094 262.496094 C 158.359375 262.496094 161.695312 259.164062 161.695312 255.054688 L 161.695312 209.601562 C 161.644531 209.605469 161.59375 209.613281 161.539062 209.617188 C 161.390625 209.625 161.257812 209.625 161.132812 209.625 Z M 161.132812 209.625 " fill-opacity="1" fill-rule="nonzero"/></g><path fill="#fef9f2" d="M 131.835938 132.761719 C 131.835938 140.242188 137.90625 146.308594 145.394531 146.308594 C 152.886719 146.308594 158.957031 140.242188 158.957031 132.761719 C 158.957031 132.105469 158.90625 131.457031 158.816406 130.820312 L 131.976562 130.820312 C 131.882812 131.457031 131.835938 132.105469 131.835938 132.761719 Z M 131.835938 132.761719 " fill-opacity="1" fill-rule="nonzero"/><g clip-path="url(#id4)"><path fill="#fef9f2" d="M 131.464844 125.984375 L 131.214844 125.984375 C 130.210938 125.984375 129.394531 126.800781 129.394531 127.800781 C 129.394531 128.804688 130.210938 129.617188 131.214844 129.617188 L 159.578125 129.617188 C 160.582031 129.617188 161.398438 128.804688 161.398438 127.800781 C 161.398438 126.800781 160.582031 125.984375 159.578125 125.984375 L 159.328125 125.984375 C 159.316406 125.578125 159.289062 125.179688 159.246094 124.78125 C 158.78125 120.65625 156.519531 117.078125 153.253906 114.847656 L 153.253906 115.960938 C 153.253906 116.753906 152.609375 117.398438 151.8125 117.398438 C 151.019531 117.398438 150.375 116.753906 150.375 115.960938 L 150.375 113.34375 C 149.257812 112.917969 148.070312 112.625 146.835938 112.5 L 146.835938 115.960938 C 146.835938 116.753906 146.191406 117.398438 145.394531 117.398438 C 144.601562 117.398438 143.957031 116.753906 143.957031 115.960938 L 143.957031 112.5 C 142.722656 112.628906 141.535156 112.917969 140.417969 113.34375 L 140.417969 115.960938 C 140.417969 116.753906 139.773438 117.398438 138.976562 117.398438 C 138.183594 117.398438 137.539062 116.753906 137.539062 115.960938 L 137.539062 114.847656 C 134.273438 117.078125 132.007812 120.65625 131.546875 124.78125 C 131.5 125.179688 131.476562 125.578125 131.464844 125.984375 Z M 131.464844 125.984375 " fill-opacity="1" fill-rule="nonzero"/></g><path fill="#fef9f2" d="M 180.753906 150.328125 L 194.414062 150.328125 L 194.414062 161.425781 L 180.753906 161.425781 Z M 180.753906 150.328125 " fill-opacity="1" fill-rule="nonzero"/><g clip-path="url(#id5)"><path fill="#fef9f2" d="M 203.882812 164.070312 C 204.105469 164.40625 204.332031 164.761719 204.558594 165.160156 C 206.996094 169.476562 209.492188 177.863281 209.480469 193.011719 C 209.480469 195.820312 209.394531 198.855469 209.214844 202.140625 C 209.066406 204.792969 211.105469 207.066406 213.765625 207.214844 C 213.855469 207.21875 213.945312 207.21875 214.03125 207.21875 C 216.574219 207.222656 218.703125 205.234375 218.84375 202.667969 C 219.03125 199.222656 219.121094 196.007812 219.121094 193.011719 C 219.105469 173.972656 215.566406 163.476562 210.949219 157.351562 C 208.648438 154.3125 206.054688 152.484375 203.828125 151.515625 C 202.625 150.988281 201.546875 150.710938 200.671875 150.5625 C 200.21875 150.414062 199.730469 150.328125 199.226562 150.328125 L 198.230469 150.328125 L 198.230469 193.730469 L 176.9375 193.730469 L 176.9375 150.328125 L 175.941406 150.328125 C 175.4375 150.328125 174.953125 150.414062 174.5 150.558594 C 173.625 150.707031 172.546875 150.988281 171.339844 151.515625 C 167.96875 152.960938 163.894531 156.382812 160.992188 162.824219 C 158.058594 169.28125 156.050781 178.714844 156.042969 193.011719 C 156.042969 196.011719 156.132812 199.222656 156.324219 202.671875 C 156.46875 205.234375 158.59375 207.21875 161.132812 207.21875 C 161.222656 207.21875 161.316406 207.21875 161.40625 207.210938 C 164.066406 207.066406 166.101562 204.792969 165.953125 202.136719 C 165.769531 198.855469 165.683594 195.820312 165.6875 193.011719 C 165.671875 176.421875 168.664062 167.996094 171.285156 164.035156 L 171.285156 255.054688 C 171.285156 259.164062 174.621094 262.496094 178.734375 262.496094 C 182.851562 262.496094 186.1875 259.164062 186.1875 255.054688 L 186.1875 200.800781 L 188.980469 200.800781 L 188.980469 255.054688 C 188.980469 259.164062 192.316406 262.496094 196.433594 262.496094 C 200.546875 262.496094 203.882812 259.164062 203.882812 255.054688 Z M 203.882812 164.070312 " fill-opacity="1" fill-rule="nonzero"/></g><path fill="#fef9f2" d="M 174.023438 132.761719 C 174.023438 140.242188 180.09375 146.308594 187.585938 146.308594 C 195.074219 146.308594 201.144531 140.242188 201.144531 132.761719 C 201.144531 132.105469 201.09375 131.457031 201.003906 130.820312 L 174.164062 130.820312 C 174.074219 131.457031 174.023438 132.105469 174.023438 132.761719 Z M 174.023438 132.761719 " fill-opacity="1" fill-rule="nonzero"/><g clip-path="url(#id6)"><path fill="#fef9f2" d="M 173.402344 125.984375 C 172.398438 125.984375 171.582031 126.800781 171.582031 127.800781 C 171.582031 128.804688 172.398438 129.617188 173.402344 129.617188 L 201.765625 129.617188 C 202.769531 129.617188 203.585938 128.804688 203.585938 127.800781 C 203.585938 126.800781 202.769531 125.984375 201.765625 125.984375 L 201.515625 125.984375 C 201.503906 125.578125 201.480469 125.179688 201.433594 124.78125 C 200.972656 120.65625 198.707031 117.078125 195.441406 114.847656 L 195.441406 115.960938 C 195.441406 116.753906 194.796875 117.398438 194.003906 117.398438 C 193.207031 117.398438 192.5625 116.753906 192.5625 115.960938 L 192.5625 113.34375 C 191.445312 112.917969 190.257812 112.625 189.023438 112.5 L 189.023438 115.960938 C 189.023438 116.753906 188.378906 117.398438 187.582031 117.398438 C 186.789062 117.398438 186.144531 116.753906 186.144531 115.960938 L 186.144531 112.5 C 184.910156 112.628906 183.722656 112.917969 182.605469 113.34375 L 182.605469 115.960938 C 182.605469 116.753906 181.960938 117.398438 181.164062 117.398438 C 180.371094 117.398438 179.726562 116.753906 179.726562 115.960938 L 179.726562 114.847656 C 176.460938 117.078125 174.195312 120.65625 173.734375 124.78125 C 173.691406 125.179688 173.664062 125.578125 173.652344 125.984375 Z M 173.402344 125.984375 " fill-opacity="1" fill-rule="nonzero"/></g></svg>