<svg xmlns="http://www.w3.org/2000/svg" xmlns:xlink="http://www.w3.org/1999/xlink" width="500" zoomAndPan="magnify" viewBox="0 0 375 374.999991" height="500" preserveAspectRatio="xMidYMid meet" version="1.0"><defs><clipPath id="id1"><path d="M 112 98.957031 L 251 98.957031 L 251 114 L 112 114 Z M 112 98.957031 " clip-rule="nonzero"/></clipPath><clipPath id="id2"><path d="M 290 270 L 303.507812 270 L 303.507812 275.957031 L 290 275.957031 Z M 290 270 " clip-rule="nonzero"/></clipPath><clipPath id="id3"><path d="M 71.757812 270 L 78 270 L 78 275.957031 L 71.757812 275.957031 Z M 71.757812 270 " clip-rule="nonzero"/></clipPath></defs><path fill="#025172" d="M 265.125 0 L 0 0 L 0 375 L 375 375 L 375 0 L 265.125 0 " fill-opacity="1" fill-rule="nonzero"/><path fill="#fef9f2" d="M 249 36.75 L 36.75 36.75 L 36.75 338.25 L 338.25 338.25 L 338.25 36.75 L 249 36.75 M 336 123.75 L 336 336 L 39 336 L 39 39 L 336 39 L 336 123.75 M 249 17.25 L 17.25 17.25 L 17.25 357.75 L 357.75 357.75 L 357.75 17.25 L 249 17.25 M 349.5 123 L 349.5 349.5 L 25.5 349.5 L 25.5 25.5 L 349.5 25.5 L 349.5 123 " fill-opacity="1" fill-rule="nonzero"/><path fill="#fef9f2" d="M 77.160156 193.304688 L 148.140625 193.304688 L 148.140625 199.472656 L 77.160156 199.472656 Z M 77.160156 193.304688 " fill-opacity="1" fill-rule="nonzero"/><path fill="#fef9f2" d="M 122.019531 146.0625 L 95.363281 146.0625 L 95.363281 170.890625 L 122.378906 146.375 Z M 122.019531 146.0625 " fill-opacity="1" fill-rule="nonzero"/><path fill="#fef9f2" d="M 95.363281 123.515625 L 95.363281 140.707031 L 115.667969 140.707031 Z M 95.363281 123.515625 " fill-opacity="1" fill-rule="nonzero"/><path fill="#fef9f2" d="M 77.160156 216.433594 L 148.140625 216.433594 L 148.140625 222.601562 L 77.160156 222.601562 Z M 77.160156 216.433594 " fill-opacity="1" fill-rule="nonzero"/><path fill="#fef9f2" d="M 128.59375 140.707031 L 158.335938 113.734375 L 109.855469 118.648438 L 99.210938 119.71875 L 123.988281 140.707031 Z M 128.59375 140.707031 " fill-opacity="1" fill-rule="nonzero"/><path fill="#fef9f2" d="M 155.296875 174.285156 L 126.492188 149.859375 L 99.613281 174.285156 Z M 155.296875 174.285156 " fill-opacity="1" fill-rule="nonzero"/><path fill="#fef9f2" d="M 123.003906 239.566406 L 127.609375 239.566406 L 127.609375 246.589844 L 123.003906 246.589844 Z M 123.003906 239.566406 " fill-opacity="1" fill-rule="nonzero"/><path fill="#fef9f2" d="M 83.109375 239.566406 L 87.714844 239.566406 L 87.714844 270.5625 L 83.109375 270.5625 Z M 83.109375 239.566406 " fill-opacity="1" fill-rule="nonzero"/><path fill="#fef9f2" d="M 123.003906 251.976562 L 127.609375 251.976562 L 127.609375 270.59375 L 123.003906 270.59375 Z M 123.003906 251.976562 " fill-opacity="1" fill-rule="nonzero"/><path fill="#fef9f2" d="M 132.976562 251.976562 L 158.515625 251.976562 L 158.515625 270.59375 L 132.976562 270.59375 Z M 132.976562 251.976562 " fill-opacity="1" fill-rule="nonzero"/><path fill="#fef9f2" d="M 93.082031 251.976562 L 117.636719 251.976562 L 117.636719 270.59375 L 93.082031 270.59375 Z M 93.082031 251.976562 " fill-opacity="1" fill-rule="nonzero"/><path fill="#fef9f2" d="M 93.082031 239.566406 L 117.636719 239.566406 L 117.636719 246.589844 L 93.082031 246.589844 Z M 93.082031 239.566406 " fill-opacity="1" fill-rule="nonzero"/><path fill="#fef9f2" d="M 223.589844 174.285156 L 223.679688 174.195312 L 197.425781 146.734375 L 172.246094 174.285156 Z M 223.589844 174.285156 " fill-opacity="1" fill-rule="nonzero"/><path fill="#fef9f2" d="M 168.847656 204.246094 L 190.671875 204.246094 L 168.847656 185.757812 Z M 168.847656 204.246094 " fill-opacity="1" fill-rule="nonzero"/><g clip-path="url(#id1)"><path fill="#fef9f2" d="M 233.160156 100.742188 L 250.648438 98.957031 L 112.269531 98.957031 L 112.269531 113.019531 Z M 233.160156 100.742188 " fill-opacity="1" fill-rule="nonzero"/></g><path fill="#fef9f2" d="M 218.355469 179.640625 L 169.921875 179.640625 L 196.441406 202.101562 Z M 218.355469 179.640625 " fill-opacity="1" fill-rule="nonzero"/><path fill="#fef9f2" d="M 251.09375 146.0625 L 204.179688 146.0625 L 227.390625 170.355469 Z M 251.09375 146.0625 " fill-opacity="1" fill-rule="nonzero"/><path fill="#fef9f2" d="M 262.457031 134.453125 L 296.402344 99.671875 L 263.617188 103.019531 L 238.660156 105.5625 Z M 262.457031 134.453125 " fill-opacity="1" fill-rule="nonzero"/><path fill="#fef9f2" d="M 258.699219 138.292969 L 233.292969 107.484375 L 202.925781 140.707031 L 256.328125 140.707031 Z M 258.699219 138.292969 " fill-opacity="1" fill-rule="nonzero"/><path fill="#fef9f2" d="M 197.335938 138.875 L 226.675781 106.769531 L 171.886719 112.351562 Z M 197.335938 138.875 " fill-opacity="1" fill-rule="nonzero"/><path fill="#fef9f2" d="M 228.867188 179.640625 L 225.824219 179.640625 L 201.808594 204.246094 L 252.4375 204.246094 Z M 228.867188 179.640625 " fill-opacity="1" fill-rule="nonzero"/><path fill="#fef9f2" d="M 262.589844 204.246094 L 287.5 179.640625 L 236.292969 179.640625 L 259.859375 204.246094 Z M 262.589844 204.246094 " fill-opacity="1" fill-rule="nonzero"/><path fill="#fef9f2" d="M 136.554688 140.707031 L 191.65625 140.707031 L 166.027344 113.957031 Z M 136.554688 140.707031 " fill-opacity="1" fill-rule="nonzero"/><path fill="#fef9f2" d="M 132.976562 239.566406 L 158.515625 239.566406 L 158.515625 246.589844 L 132.976562 246.589844 Z M 132.976562 239.566406 " fill-opacity="1" fill-rule="nonzero"/><path fill="#fef9f2" d="M 265.09375 146.0625 L 258.609375 146.0625 L 231.101562 174.238281 L 231.148438 174.285156 L 288.351562 174.285156 Z M 265.09375 146.0625 " fill-opacity="1" fill-rule="nonzero"/><path fill="#fef9f2" d="M 246.042969 239.566406 L 274.800781 239.566406 L 274.800781 270.5625 L 246.042969 270.5625 Z M 246.042969 239.566406 " fill-opacity="1" fill-rule="nonzero"/><path fill="#fef9f2" d="M 261.070312 213.265625 L 239.914062 234.207031 L 281.148438 234.207031 Z M 261.070312 213.265625 " fill-opacity="1" fill-rule="nonzero"/><path fill="#fef9f2" d="M 280.167969 239.566406 L 284.773438 239.566406 L 284.773438 270.5625 L 280.167969 270.5625 Z M 280.167969 239.566406 " fill-opacity="1" fill-rule="nonzero"/><path fill="#fef9f2" d="M 236.066406 270.597656 L 240.675781 270.597656 L 240.675781 239.566406 L 236.066406 239.566406 Z M 236.066406 270.597656 " fill-opacity="1" fill-rule="nonzero"/><path fill="#fef9f2" d="M 219.878906 239.566406 L 230.699219 239.566406 L 230.699219 246.589844 L 219.878906 246.589844 Z M 219.878906 239.566406 " fill-opacity="1" fill-rule="nonzero"/><path fill="#fef9f2" d="M 205.296875 209.601562 L 233.25 233.269531 L 257.175781 209.601562 Z M 205.296875 209.601562 " fill-opacity="1" fill-rule="nonzero"/><path fill="#fef9f2" d="M 294.925781 146.0625 L 272.027344 146.0625 L 292.0625 170.398438 Z M 294.925781 146.0625 " fill-opacity="1" fill-rule="nonzero"/><path fill="#fef9f2" d="M 299.890625 103.777344 L 265.898438 138.605469 L 267.644531 140.707031 L 295.550781 140.707031 Z M 299.890625 103.777344 " fill-opacity="1" fill-rule="nonzero"/><path fill="#fef9f2" d="M 77.160156 179.640625 L 77.160156 187.945312 L 150.824219 187.945312 C 151.179688 187.945312 151.519531 188.015625 151.847656 188.152344 C 152.179688 188.285156 152.46875 188.480469 152.71875 188.730469 C 152.972656 188.984375 153.164062 189.273438 153.300781 189.601562 C 153.4375 189.929688 153.507812 190.269531 153.507812 190.625 L 153.507812 202.144531 C 153.507812 202.5 153.4375 202.84375 153.300781 203.171875 C 153.164062 203.5 152.972656 203.789062 152.71875 204.039062 C 152.46875 204.292969 152.179688 204.484375 151.847656 204.621094 C 151.519531 204.757812 151.179688 204.824219 150.824219 204.824219 L 77.160156 204.824219 L 77.160156 211.078125 L 150.824219 211.078125 C 151.179688 211.078125 151.519531 211.144531 151.847656 211.28125 C 152.179688 211.417969 152.46875 211.609375 152.71875 211.863281 C 152.972656 212.113281 153.164062 212.402344 153.300781 212.730469 C 153.4375 213.058594 153.507812 213.402344 153.507812 213.757812 L 153.507812 225.277344 C 153.507812 225.632812 153.4375 225.972656 153.300781 226.300781 C 153.164062 226.628906 152.972656 226.917969 152.71875 227.171875 C 152.46875 227.421875 152.179688 227.617188 151.847656 227.75 C 151.519531 227.886719 151.179688 227.957031 150.824219 227.957031 L 77.160156 227.957031 L 77.160156 234.207031 L 163.480469 234.207031 L 163.480469 181.203125 L 161.601562 179.640625 Z M 77.160156 179.640625 " fill-opacity="1" fill-rule="nonzero"/><path fill="#fef9f2" d="M 270.238281 204.246094 L 288.128906 204.246094 L 290.453125 184.242188 Z M 270.238281 204.246094 " fill-opacity="1" fill-rule="nonzero"/><path fill="#fef9f2" d="M 285.042969 230.546875 L 287.5 209.601562 L 265.003906 209.601562 Z M 285.042969 230.546875 " fill-opacity="1" fill-rule="nonzero"/><path fill="#fef9f2" d="M 219.878906 251.976562 L 230.699219 251.976562 L 230.699219 270.59375 L 219.878906 270.59375 Z M 219.878906 251.976562 " fill-opacity="1" fill-rule="nonzero"/><path fill="#fef9f2" d="M 203.6875 239.566406 L 214.511719 239.566406 L 214.511719 246.589844 L 203.6875 246.589844 Z M 203.6875 239.566406 " fill-opacity="1" fill-rule="nonzero"/><path fill="#fef9f2" d="M 163.882812 239.566406 L 163.882812 246.621094 L 168.445312 246.621094 L 168.445312 239.566406 Z M 163.882812 239.566406 " fill-opacity="1" fill-rule="nonzero"/><path fill="#fef9f2" d="M 197.023438 209.601562 L 196.574219 209.601562 L 172.515625 234.207031 L 226.09375 234.207031 Z M 197.023438 209.601562 " fill-opacity="1" fill-rule="nonzero"/><path fill="#fef9f2" d="M 190.761719 146.0625 L 130.652344 146.0625 L 130.519531 146.242188 L 163.570312 174.285156 L 165 174.285156 Z M 190.761719 146.0625 " fill-opacity="1" fill-rule="nonzero"/><path fill="#fef9f2" d="M 163.882812 251.976562 L 168.488281 251.976562 L 168.488281 270.59375 L 163.882812 270.59375 Z M 163.882812 251.976562 " fill-opacity="1" fill-rule="nonzero"/><path fill="#fef9f2" d="M 168.847656 209.601562 L 168.847656 230.320312 L 189.0625 209.601562 Z M 168.847656 209.601562 " fill-opacity="1" fill-rule="nonzero"/><path fill="#fef9f2" d="M 173.8125 251.976562 L 182.621094 251.976562 L 182.621094 270.59375 L 173.8125 270.59375 Z M 173.8125 251.976562 " fill-opacity="1" fill-rule="nonzero"/><path fill="#fef9f2" d="M 188.035156 239.566406 L 198.363281 239.566406 L 198.363281 246.589844 L 188.035156 246.589844 Z M 188.035156 239.566406 " fill-opacity="1" fill-rule="nonzero"/><path fill="#fef9f2" d="M 203.6875 251.976562 L 214.511719 251.976562 L 214.511719 270.59375 L 203.6875 270.59375 Z M 203.6875 251.976562 " fill-opacity="1" fill-rule="nonzero"/><path fill="#fef9f2" d="M 173.8125 239.566406 L 182.621094 239.566406 L 182.621094 246.589844 L 173.8125 246.589844 Z M 173.8125 239.566406 " fill-opacity="1" fill-rule="nonzero"/><path fill="#fef9f2" d="M 188.035156 251.976562 L 198.363281 251.976562 L 198.363281 270.59375 L 188.035156 270.59375 Z M 188.035156 251.976562 " fill-opacity="1" fill-rule="nonzero"/><g clip-path="url(#id2)"><path fill="#fef9f2" d="M 290.09375 270.597656 L 303.46875 270.597656 L 303.46875 275.957031 L 290.09375 275.957031 Z M 290.09375 270.597656 " fill-opacity="1" fill-rule="nonzero"/></g><g clip-path="url(#id3)"><path fill="#fef9f2" d="M 71.792969 270.597656 L 77.742188 270.597656 L 77.742188 275.957031 L 71.792969 275.957031 Z M 71.792969 270.597656 " fill-opacity="1" fill-rule="nonzero"/></g></svg>